<svg width="32" height="32" viewBox="0 0 32 32" fill="none" xmlns="http://www.w3.org/2000/svg">
<g id="svg-2063331707_628" clip-path="url(#clip0_303_3319)">
<path id="Vector" d="M31.2447 15.9496C31.3651 7.38162 24.517 0.33835 15.949 0.217963C7.38111 0.0975771 0.337832 6.94567 0.217446 15.5136C0.09706 24.0815 6.94515 31.1248 15.5131 31.2452C24.081 31.3656 31.1243 24.5175 31.2447 15.9496Z" fill="#7D00FF"/>
<path id="Vector_2" d="M23.457 7.07296C24.3646 7.55199 24.8795 8.47418 24.864 9.57575C24.8524 10.4136 24.6604 10.8916 24.1077 11.4734C22.816 12.8679 20.4325 12.4926 19.5714 10.7733C19.2708 10.1488 19.2883 8.84557 19.6073 8.22981C19.9263 7.6286 20.7108 6.9886 21.2558 6.87224C21.4885 6.8286 21.7532 6.77042 21.8318 6.74036C22.081 6.66569 23.04 6.86642 23.456 7.07296H23.457ZM16.4519 11.9088C17.8726 12.6349 19.0049 13.8215 19.6635 15.2747C20.2647 16.6177 20.3792 18.497 19.9399 19.9185C18.4272 24.8621 12.1532 26.4039 8.5576 22.7064C5.54475 19.6073 6.17602 14.4184 9.85408 12.1736C11.106 11.4153 12.1649 11.1661 13.8085 11.2514C15.1729 11.3328 15.4357 11.3988 16.4519 11.9088Z" fill="white"/>
</g>
<defs>
<clipPath id="clip0_303_3319">
<rect width="32" height="32" fill="white"/>
</clipPath>
</defs>
</svg>
