<svg width="291" height="49" viewBox="0 0 291 49" fill="none" xmlns="http://www.w3.org/2000/svg">
<mask id="mask0_1568_11166" style="mask-type:luminance" maskUnits="userSpaceOnUse" x="0" y="0" width="291" height="49">
<path d="M0.171875 0.49588H290.866V48.7959H0.171875V0.49588Z" fill="white"/>
</mask>
<g mask="url(#mask0_1568_11166)">
<path d="M290.977 9.44032V39.4489C290.977 44.3854 286.969 48.3934 282.033 48.3934H9.11632C4.17988 48.3934 0.171875 44.3854 0.171875 39.4489V9.44032C0.171875 4.50389 4.17988 0.49588 9.11632 0.49588H282.033C286.969 0.49588 290.977 4.50389 290.977 9.44032Z" fill="white" fill-opacity="0.9"/>
<path d="M290.977 9.44032V39.4489C290.977 44.3854 286.969 48.3934 282.033 48.3934H9.11632C4.17988 48.3934 0.171875 44.3854 0.171875 39.4489V9.44032C0.171875 4.50389 4.17988 0.49588 9.11632 0.49588H282.033C286.969 0.49588 290.977 4.50389 290.977 9.44032Z" stroke="white" stroke-width="1.07691"/>
<path d="M290.977 9.44032V39.4489C290.977 44.3854 286.969 48.3934 282.033 48.3934H9.11632C4.17988 48.3934 0.171875 44.3854 0.171875 39.4489V9.44032C0.171875 4.50389 4.17988 0.49588 9.11632 0.49588H282.033C286.969 0.49588 290.977 4.50389 290.977 9.44032Z" fill="#F2F2F2" fill-opacity="0.9"/>
<path d="M290.977 9.44032V39.4489C290.977 44.3854 286.969 48.3934 282.033 48.3934H9.11632C4.17988 48.3934 0.171875 44.3854 0.171875 39.4489V9.44032C0.171875 4.50389 4.17988 0.49588 9.11632 0.49588H282.033C286.969 0.49588 290.977 4.50389 290.977 9.44032Z" stroke="white" stroke-width="1.07691"/>
<mask id="mask1_1568_11166" style="mask-type:luminance" maskUnits="userSpaceOnUse" x="13" y="11" width="30" height="30">
<path d="M13.4219 11.5103H42.557V40.6454H13.4219V11.5103Z" fill="white"/>
</mask>
<g mask="url(#mask1_1568_11166)">
<path d="M27.5481 36.5615C33.358 36.5615 38.0668 31.8527 38.0668 26.0427C38.0668 20.2328 33.358 15.524 27.5481 15.524C21.7381 15.524 17.0293 20.2328 17.0293 26.0427C17.0293 31.8527 21.7381 36.5615 27.5481 36.5615Z" fill="#EDAFF7"/>
<mask id="mask2_1568_11166" style="mask-type:luminance" maskUnits="userSpaceOnUse" x="20" y="19" width="16" height="15">
<path d="M20.9863 19.1339H35.0515V33.1992H20.9863V19.1339Z" fill="white"/>
</mask>
<g mask="url(#mask2_1568_11166)">
<path d="M23.4596 29.6336L27.6269 28.6692C27.9946 28.5807 28.1594 28.2372 27.9946 27.8946L27.0322 25.9013C26.8805 25.5838 27.0322 25.2543 27.3737 25.178L32.8592 23.8699C33.1003 23.8066 33.2902 23.9714 33.2902 24.2125V26.8658C33.2902 27.1451 33.0621 27.4254 32.7959 27.4887L28.9953 28.4029C28.6276 28.4793 28.4638 28.8339 28.6286 29.1765L29.6794 31.3476C29.7809 31.5636 29.6804 31.7916 29.4393 31.8429L23.6244 33.1891C23.3832 33.2403 23.1934 33.0876 23.1934 32.8465V29.9772C23.1934 29.8245 23.3079 29.6718 23.4596 29.6336Z" fill="#151515"/>
<path d="M25.9686 23.7313L24.8795 21.4969C24.778 21.2809 24.8795 21.0528 25.1206 21.0016L32.8354 19.148C33.0765 19.0847 33.2664 19.2495 33.2664 19.4906V22.3599C33.2664 22.5126 33.1519 22.6643 33.0002 22.7025L26.8557 24.1753C26.5261 24.2517 26.2479 24.5943 26.2479 24.9368L26.2348 27.4003C26.2348 27.6544 26.0319 27.9207 25.7787 27.9719L23.904 28.4029C23.5112 28.4913 23.1816 28.2382 23.1816 27.8323V25.4321C23.1816 25.178 23.3846 24.9238 23.6378 24.8605L25.6521 24.3913C25.9686 24.328 26.1082 24.0236 25.9686 23.7313Z" fill="#151515"/>
</g>
</g>
<path d="M43.9746 33.0438H53.0622V31.0134H46.2554V18.8579H43.9746V33.0438Z" fill="#141519"/>
<path d="M53.9336 21.2192H56.3307V18.7953H53.9336V21.2192ZM54.0499 24.645H55.481V22.8292H54.0499V24.645ZM54.0499 33.0438H56.1965V31.237H54.0499V33.0438ZM54.0499 33.0438H56.1965V22.8292H54.0499V33.0438Z" fill="#141519"/>
<path d="M58.3203 33.0438H60.6011V26.6843H66.3256V24.6807H60.6011V20.8615H67.6494V18.8579H58.3203V33.0438Z" fill="#141519"/>
<path d="M68.5547 21.2192H70.9518V18.7953H68.5547V21.2192ZM68.671 24.645H70.1021V22.8292H68.671V24.645ZM68.671 33.0438H70.8176V31.237H68.671V33.0438ZM68.671 33.0438H70.8176V22.8292H68.671V33.0438Z" fill="#141519"/>
</g>
</svg>
