<svg width="80" height="80" viewBox="0 0 80 80" fill="none" xmlns="http://www.w3.org/2000/svg">
<g clip-path="url(#clip0_1568_11609)">
<path d="M85.405 -15.5H-5.66028C-10.9544 -15.5 -15.2461 -11.2083 -15.2461 -5.91419V85.1511C-15.2461 90.4452 -10.9544 94.7369 -5.66028 94.7369H85.405C90.6991 94.7369 94.9908 90.4452 94.9908 85.1511V-5.91419C94.9908 -11.2083 90.6991 -15.5 85.405 -15.5Z" fill="#DCE1EE"/>
<path d="M39.8727 68.3758C55.755 68.3758 68.6301 55.5006 68.6301 39.6184C68.6301 23.7361 55.755 10.8609 39.8727 10.8609C23.9903 10.8609 11.1152 23.7361 11.1152 39.6184C11.1152 55.5006 23.9903 68.3758 39.8727 68.3758Z" fill="#0052FF"/>
<path fill-rule="evenodd" clip-rule="evenodd" d="M19.748 39.6166C19.748 50.7361 28.7588 59.7468 39.8783 59.7468C50.9978 59.7468 60.0084 50.7361 60.0084 39.6166C60.0084 28.497 50.9978 19.4864 39.8783 19.4864C28.7588 19.4864 19.748 28.497 19.748 39.6166ZM34.7403 33.1238C33.999 33.1238 33.3983 33.7245 33.3983 34.4658V44.7546C33.3983 45.4959 33.999 46.0966 34.7403 46.0966H45.0291C45.7703 46.0966 46.3711 45.4959 46.3711 44.7546V34.4658C46.3711 33.7245 45.7703 33.1238 45.0291 33.1238H34.7403Z" fill="white"/>
</g>
<defs>
<clipPath id="clip0_1568_11609">
<rect width="111" height="111" fill="white" transform="translate(-15.5 -15.5)"/>
</clipPath>
</defs>
</svg>
