<svg width="33" height="33" viewBox="0 0 33 33" fill="none" xmlns="http://www.w3.org/2000/svg">
<rect x="0.660156" y="0.600006" width="32" height="32" rx="16" fill="#171617"/>
<g clip-path="url(#clip0_177_11966)">
<g clip-path="url(#clip1_177_11966)">
<path d="M16.4523 6.6395C16.4435 6.86057 16.387 7.0771 16.2868 7.27435C16.2733 7.28398 16.2623 7.29684 16.2549 7.31173C16.2492 7.32906 16.2492 7.34774 16.2549 7.36507C16.2042 7.53889 16.0995 7.69214 15.9561 7.80259C15.9533 7.80745 15.9518 7.81292 15.9518 7.81854C15.9518 7.82416 15.9533 7.8297 15.9561 7.83456C15.9561 7.86657 15.9561 7.88261 15.9561 7.86661C15.8903 7.87379 15.8287 7.90178 15.78 7.94658C15.4904 8.10508 15.1703 8.19969 14.841 8.22402H14.6597L14.8784 8.25606C15.1546 8.29149 15.422 8.37642 15.668 8.50679C15.6652 8.51546 15.6652 8.52483 15.668 8.53349C15.8494 8.61826 16.0097 8.74212 16.1375 8.89625C16.3519 9.21298 16.4771 9.58151 16.5003 9.96327C16.5003 10.182 16.5696 10.1553 16.5963 9.92061C16.5963 9.81391 16.639 9.62717 16.6657 9.5098C16.6844 9.42546 16.6844 9.33806 16.6657 9.25372C16.6657 9.25372 16.6656 9.211 16.703 9.211C16.7403 9.211 16.7883 9.163 16.8203 9.09364C16.9572 8.87027 17.1388 8.67774 17.3539 8.52815C17.5926 8.41563 17.8458 8.3366 18.1061 8.29337C18.3302 8.24536 18.3569 8.23469 18.2342 8.22936C17.7951 8.22929 17.3737 8.05686 17.0605 7.74918C16.7457 7.44508 16.687 7.29036 16.575 6.60746C16.575 6.41539 16.4736 6.40472 16.4736 6.60746" fill="white"/>
<path d="M21.2113 7.73185C20.9899 7.73603 20.7732 7.79661 20.5817 7.90788C20.3899 8.01523 20.2284 8.1694 20.1122 8.35602C19.9439 8.59746 19.8293 8.87216 19.7761 9.16162C19.759 9.28669 19.7304 9.40995 19.6907 9.52978C19.6582 9.6573 19.6385 9.78778 19.632 9.91923C19.632 10.09 19.6001 10.2553 19.5894 10.314C19.5787 10.3727 19.536 10.5861 19.5094 10.7889C19.4827 10.9916 19.44 11.237 19.4134 11.3224C19.3867 11.4077 19.3546 11.6318 19.3226 11.7972C19.3068 11.9308 19.28 12.0628 19.2426 12.192C19.2107 12.2762 19.1892 12.364 19.1786 12.4534C19.1184 12.8162 19.0273 13.1731 18.9065 13.5204C18.8804 13.5871 18.8643 13.6572 18.8585 13.7285C18.7949 14.0801 18.7039 14.4261 18.5864 14.7635C18.5615 14.8302 18.5471 14.9004 18.5437 14.9716C18.5437 15.0196 18.5437 15.0676 18.5117 15.073C18.4499 15.2088 18.4068 15.3523 18.3837 15.4997C18.3473 15.6514 18.3028 15.801 18.2503 15.9479C18.218 16.0346 18.193 16.1238 18.1756 16.2146C18.1595 16.3064 18.1327 16.3959 18.0955 16.4814C18.0583 16.576 18.0316 16.6744 18.0156 16.7748C18.0156 16.8922 17.9568 17.0096 17.9195 17.1216C17.8181 17.4097 17.4607 19.0049 17.3273 19.7571C17.29 19.9492 17.2419 20.1893 17.2259 20.2907C17.2099 20.392 17.1459 20.8242 17.1032 21.1977C16.9256 22.4127 16.8542 23.6408 16.8898 24.8682V25.6791H17.0445C17.2473 25.6353 17.443 25.5635 17.626 25.4658C18.0102 25.279 18.0048 25.279 17.9728 25.1937C17.9408 25.1083 17.9729 25.1189 18.0049 25.1563C18.0369 25.1936 18.2609 25.1029 18.2343 25.0229C18.2076 24.9429 18.2343 24.9749 18.2343 24.9909C18.2343 25.0069 18.5543 24.7562 18.5543 24.6975C18.6138 24.5909 18.6816 24.4893 18.7571 24.3934C18.8427 24.2913 18.9111 24.176 18.9598 24.0519C18.969 24.001 18.991 23.9533 19.0238 23.9132C19.0559 23.8687 19.0777 23.8177 19.0879 23.7638C19.0927 23.7162 19.1156 23.6723 19.1519 23.6411C19.1702 23.626 19.1834 23.6055 19.1893 23.5824C19.1949 23.5597 19.1949 23.5359 19.1893 23.5131C19.1893 23.4757 19.1893 23.4437 19.1893 23.4437C19.1893 23.4437 19.2212 23.401 19.2212 23.3477C19.2216 23.2974 19.2385 23.2487 19.2693 23.209C19.3667 22.9654 19.4347 22.7111 19.472 22.4514C19.4718 22.4033 19.4827 22.3558 19.504 22.3127C19.6241 21.6731 19.7008 21.026 19.7334 20.376C19.7334 20.168 19.7761 19.6771 19.7975 19.309C19.8188 18.9409 19.8614 18.2153 19.8881 17.7458C19.9148 17.2763 19.9415 16.8015 19.9521 16.6788C19.9628 16.5561 19.9842 16.0706 20.0055 15.6118C20.0269 15.1529 20.0642 14.6141 20.0909 14.4487C20.1198 14.2277 20.1324 14.0048 20.1282 13.7819C20.1282 13.5951 20.1282 13.2483 20.1709 13.0403C20.2136 12.8322 20.2296 12.2293 20.2509 11.7438C20.2936 10.9222 20.3896 9.83916 20.4377 9.60975C20.4377 9.5564 20.4697 9.44973 20.4804 9.37504C20.5069 9.18154 20.5821 8.99796 20.6991 8.84153C20.7693 8.772 20.8462 8.70948 20.9285 8.65482C21.0569 8.5684 21.2126 8.53227 21.366 8.55341C21.5435 8.5417 21.7201 8.58719 21.8699 8.68321C22.0197 8.77922 22.1348 8.92072 22.1983 9.08693C22.231 9.16312 22.2702 9.23632 22.3156 9.30568C22.3486 9.38666 22.3736 9.47062 22.3903 9.55641C22.4107 9.64772 22.4393 9.73701 22.4757 9.82317C22.6254 10.4337 22.7428 11.0516 22.8278 11.6744C22.8705 11.9465 22.9078 12.256 22.9345 12.3627C22.9665 12.5974 22.9879 12.8375 22.9985 13.0829C22.9985 13.4244 23.0359 13.5791 23.0679 13.5258C23.0999 13.4724 23.0679 13.4724 23.0679 13.5631C23.0679 13.6538 23.0679 14.0966 23.0999 14.6301C23.1745 15.9525 23.0958 17.2792 22.8652 18.5834C22.8345 18.6762 22.8218 18.774 22.8278 18.8716C22.8331 18.8871 22.8331 18.904 22.8278 18.9196C22.8302 18.9319 22.8302 18.9446 22.8278 18.9569C22.8112 18.9756 22.7989 18.9978 22.7915 19.0217C22.7841 19.0456 22.782 19.0708 22.7851 19.0956C22.7701 19.2158 22.7414 19.334 22.6997 19.4477C22.6617 19.5539 22.6419 19.6657 22.6411 19.7785C22.6411 19.8425 22.6411 19.8532 22.6411 19.8105C22.6411 19.7678 22.5877 19.8105 22.5664 19.9919C22.5616 20.0909 22.5399 20.1883 22.5023 20.28C22.4757 20.3324 22.456 20.388 22.4437 20.4454C22.4015 20.6527 22.3371 20.8548 22.2516 21.0483C22.2303 21.0952 22.2193 21.1461 22.2196 21.1977C22.2275 21.231 22.2275 21.2657 22.2196 21.299C22.1189 21.5139 22.0368 21.737 21.9742 21.9659C21.9332 22.0937 21.8832 22.2185 21.8248 22.3394C21.7925 22.4224 21.7676 22.5081 21.7501 22.5955C21.7556 22.6146 21.7556 22.635 21.7501 22.6541C21.7421 22.6731 21.7292 22.6897 21.7128 22.7021C21.6903 22.7278 21.6755 22.7592 21.6701 22.7929C21.6546 22.8786 21.6258 22.9614 21.5847 23.0383C21.5409 23.1351 21.5104 23.2374 21.494 23.3424C21.494 23.4064 21.494 23.4491 21.462 23.4437C21.4066 23.538 21.3669 23.6407 21.3447 23.7478C21.3124 23.8704 21.2695 23.99 21.2166 24.1053C21.1933 24.1584 21.1753 24.2139 21.1632 24.2707C21.1259 24.4254 21.0885 24.6014 20.9765 25.0122C20.917 25.2315 20.8707 25.4542 20.8378 25.6791L20.7898 26.0099H20.6457H20.507V25.6844C20.5614 25.2274 20.6616 24.7771 20.8058 24.3401C20.8325 24.2707 20.8644 24.1586 20.8858 24.0946C20.9022 24.0238 20.9237 23.9543 20.9499 23.8865L21.0565 23.5824C21.0773 23.4882 21.1095 23.3968 21.1525 23.3103C21.1801 23.2528 21.1998 23.1918 21.2113 23.129C21.2284 23.0368 21.257 22.9472 21.2966 22.8622C21.4139 22.6054 21.5103 22.3396 21.5847 22.0673C21.6068 21.9769 21.6428 21.8905 21.6914 21.8112C21.6914 21.8112 21.7288 21.7792 21.7288 21.7365C21.7944 21.4515 21.8855 21.173 22.0009 20.9042C22.0332 20.8467 22.0532 20.7831 22.0596 20.7175C22.0748 20.6146 22.1035 20.5141 22.1449 20.4187C22.2457 20.1303 22.3224 19.8341 22.3743 19.5331C22.3901 19.476 22.4115 19.4205 22.4383 19.3677C22.4655 19.3089 22.4818 19.2456 22.4863 19.181C22.491 19.1139 22.5036 19.0477 22.5237 18.9836C22.6755 18.3201 22.7754 17.6459 22.8224 16.9669C22.8945 15.8779 22.8945 14.7854 22.8224 13.6965C22.8224 13.5151 22.7691 13.275 22.7584 13.163C22.7477 13.0509 22.7584 12.8162 22.7158 12.6294C22.6731 12.4427 22.6784 12.272 22.6731 12.2133C22.665 12.0897 22.6489 11.9668 22.625 11.8452C22.593 11.6958 22.545 11.4078 22.5077 11.205C22.4543 10.8849 22.4223 10.7088 22.2996 10.0633C22.2996 9.99928 22.2623 9.95122 22.2463 9.95122C22.2303 9.95122 22.2036 9.8712 22.1876 9.77517C22.1174 9.50699 22.0058 9.25137 21.8568 9.01757C21.8248 8.96422 21.7874 8.9322 21.7714 8.95354C21.7554 8.97488 21.7234 8.95357 21.7021 8.91089C21.6807 8.86821 21.606 8.84153 21.4246 8.84153C21.323 8.82599 21.2191 8.84676 21.1312 8.90021C21.0403 8.9494 20.9716 9.03149 20.9392 9.12964C20.7738 9.43908 20.7364 9.66317 20.5124 12.9976C20.5124 13.2804 20.4537 14.0646 20.411 14.7475C20.3683 15.4304 20.331 16.1559 20.3096 16.348C20.2723 16.7161 20.2029 17.8258 20.1709 18.7595C20.1336 19.5011 20.0215 21.2563 19.9788 21.6511C19.9788 21.8592 19.9095 22.1473 19.8775 22.2913C19.8455 22.4354 19.7868 22.6861 19.7495 22.8515C19.712 23.0128 19.6639 23.1715 19.6054 23.3264C19.5627 23.4171 19.4987 23.5824 19.4614 23.6945C19.4196 23.8245 19.3678 23.9512 19.3066 24.0733L19.1199 24.4307C19.0719 24.5374 19.0079 24.6228 18.9812 24.6228C18.9545 24.6228 18.9492 24.6228 18.9812 24.6868C18.9856 24.6903 18.9892 24.6947 18.9917 24.6998C18.9941 24.7049 18.9954 24.7105 18.9954 24.7162C18.9954 24.7218 18.9941 24.7274 18.9917 24.7324C18.9892 24.7375 18.9856 24.742 18.9812 24.7455C18.9492 24.7455 18.8958 24.7989 18.8585 24.8682C18.7248 25.059 18.5608 25.2266 18.373 25.3644C18.324 25.387 18.2804 25.4198 18.2449 25.4604C17.968 25.6782 17.6479 25.8345 17.3059 25.9192C16.7756 26.0155 16.2314 26.0045 15.7054 25.8872C15.6527 25.851 15.5926 25.8273 15.5294 25.8178C15.3219 25.7592 15.1292 25.6574 14.9638 25.5191C14.9158 25.5191 14.8678 25.4818 14.6437 25.2684C14.4222 25.0648 14.2301 24.8313 14.0729 24.5748C14.0463 24.5139 14.0123 24.4566 13.9715 24.4041C13.9261 24.3347 13.8868 24.2615 13.8541 24.1853C13.8061 24.0786 13.7474 24.0039 13.7315 24.0199C13.7154 24.0359 13.6994 24.0199 13.7315 23.9826C13.7324 23.8941 13.7084 23.8072 13.6621 23.7318C13.6246 23.6523 13.5925 23.5703 13.566 23.4864C13.5443 23.3599 13.4951 23.2398 13.422 23.1343C13.3954 23.0759 13.3844 23.0115 13.39 22.9475C13.3901 22.853 13.3738 22.7592 13.342 22.6702C13.2205 22.1736 13.1508 21.6658 13.1339 21.1549C13.1339 20.9202 13.1339 20.8295 13.0912 20.8722C13.0485 20.9149 13.0539 20.9042 13.0646 20.8082C13.0779 20.5487 13.0779 20.2887 13.0646 20.0292C13.0219 19.4637 12.9418 18.0232 12.8831 16.8282C12.8138 15.5104 12.7178 14.0646 12.6644 13.4137C12.5897 12.3787 12.531 11.5571 12.483 10.6875C12.483 10.2873 12.419 9.85517 12.3977 9.74313C12.2856 9.20962 12.2536 9.09226 12.1949 9.09226C12.1363 9.09226 12.1523 9.0549 12.1363 9.00688C12.1203 8.95887 11.9549 8.84153 11.7415 8.84153C11.6458 8.83236 11.5495 8.85086 11.464 8.89487C11.3792 8.94268 11.3091 9.01279 11.2613 9.0976C11.2189 9.17169 11.1668 9.23986 11.1066 9.30034C11.076 9.35174 11.063 9.41165 11.0692 9.4711C11.082 9.51283 11.082 9.55741 11.0692 9.59914C10.9814 9.76695 10.9184 9.94668 10.8825 10.1327C10.864 10.2535 10.8373 10.3729 10.8025 10.4901C10.7439 10.7126 10.7011 10.9391 10.6744 11.1676C10.6424 11.4451 10.5784 11.7865 10.5517 11.9252C10.4823 12.2187 10.4823 12.272 10.5517 12.192C10.5944 12.144 10.621 12.112 10.5517 12.192C10.4718 12.4843 10.4288 12.7853 10.4236 13.0883C10.4236 13.2003 10.4236 13.2697 10.4236 13.243C10.3714 13.5336 10.3429 13.8281 10.3383 14.1233C10.2636 15.3877 10.3383 17.6658 10.429 17.4204C10.429 17.3617 10.429 17.4204 10.429 17.5004C10.488 18.3328 10.6474 19.155 10.9038 19.9492C10.9572 20.1146 11.0052 20.296 11.0158 20.3493C11.0265 20.4027 11.0586 20.4401 11.0799 20.4401C11.1013 20.4401 11.0799 20.4774 11.0799 20.5254C11.0703 20.5987 11.0833 20.6732 11.1172 20.7389C11.1492 20.8135 11.2346 21.0696 11.3146 21.3097C11.357 21.4652 11.4124 21.6169 11.4801 21.7632C11.5128 21.8276 11.5378 21.8956 11.5547 21.9659C11.5769 22.0567 11.6054 22.1458 11.6401 22.2326C11.6401 22.2807 11.6934 22.3821 11.7201 22.4674C11.7352 22.5317 11.7644 22.5918 11.8055 22.6435C11.8083 22.6593 11.8083 22.6756 11.8055 22.6915C11.8112 22.7088 11.8112 22.7275 11.8055 22.7448C11.833 22.8575 11.8686 22.9681 11.9122 23.0756C11.9602 23.1958 12.0012 23.3187 12.0349 23.4437C12.045 23.496 12.0669 23.5452 12.0989 23.5878C12.1247 23.6193 12.138 23.6591 12.1363 23.6998C12.1379 23.7517 12.1506 23.8027 12.1736 23.8492C12.2646 24.0554 12.3291 24.2723 12.3656 24.4947C12.3823 24.5933 12.4091 24.6898 12.4457 24.7828C12.5575 25.1453 12.6273 25.5194 12.6537 25.8979C12.6362 25.9184 12.6144 25.9348 12.5897 25.9459H12.5097C12.4137 25.9459 12.3817 25.9459 12.3817 25.8659C12.3817 25.7859 12.3817 25.7698 12.3443 25.7591C12.3273 25.7375 12.3148 25.7126 12.3075 25.6861C12.3001 25.6595 12.2981 25.6318 12.3016 25.6045C12.2717 25.334 12.22 25.0664 12.1469 24.8042C12.1469 24.7509 12.1149 24.7188 12.0989 24.7242C12.0829 24.7295 12.0669 24.6814 12.0669 24.6121C12.001 24.3023 11.9137 23.9975 11.8055 23.6998L11.5707 23.0116C11.5067 22.8462 11.4426 22.7075 11.4213 22.7182C11.4 22.7288 11.4213 22.7182 11.4213 22.6595C11.4316 22.5614 11.4111 22.4626 11.3626 22.3767C11.2933 22.2201 11.2328 22.0598 11.1813 21.8965C11.1426 21.7676 11.0963 21.6411 11.0425 21.5178C11.0067 21.4308 10.9764 21.3417 10.9518 21.251C10.929 21.1604 10.9005 21.0713 10.8665 20.9842C10.8665 20.9416 10.8131 20.8082 10.7865 20.6961C10.7608 20.5835 10.7269 20.473 10.6851 20.3654C10.6175 20.1916 10.5623 20.0133 10.5197 19.8318C10.461 19.5971 10.397 19.3463 10.3756 19.2983C10.187 18.5425 10.0673 17.7711 10.0182 16.9936C9.96481 16.3694 9.98615 14.1659 10.0182 13.7445C10.0546 13.4684 10.076 13.1906 10.0822 12.9122C10.0822 12.6561 10.0822 12.4854 10.1196 12.5228C10.1569 12.5601 10.1196 12.5228 10.1196 12.4001C10.13 12.2405 10.1514 12.0819 10.1836 11.9252C10.2156 11.7705 10.253 11.5038 10.2743 11.3384C10.2751 11.2047 10.2948 11.0717 10.333 10.9435C10.333 10.9009 10.4023 10.6395 10.4557 10.3727C10.4917 10.0581 10.5688 9.7496 10.6851 9.45508C10.7124 9.40305 10.7323 9.34732 10.7438 9.28966C10.7772 9.1666 10.8394 9.05323 10.9252 8.95888C10.9252 8.95888 10.9252 8.95892 10.9252 8.92691C10.9283 8.91466 10.9283 8.90178 10.9252 8.88953C10.9252 8.8255 11.0212 8.7348 11.2293 8.61209C11.3679 8.54242 11.5226 8.51116 11.6774 8.52144C11.8695 8.52144 11.9709 8.52142 11.9869 8.56943C11.9844 8.58176 11.9844 8.59443 11.9869 8.60676C12.0025 8.61167 12.0192 8.61167 12.0349 8.60676C12.1223 8.64463 12.1992 8.70325 12.259 8.77751C12.5157 9.12059 12.639 9.54533 12.6058 9.97257C12.6111 10.1514 12.6289 10.3297 12.6591 10.5061C12.6803 10.6079 12.691 10.7115 12.6911 10.8155C12.6911 10.9649 12.7285 11.3491 12.7445 11.6692C12.7605 11.9893 12.7871 12.3947 12.7871 12.5708C12.7871 12.7468 12.7871 12.8749 12.8244 12.8429C12.8618 12.8109 12.8244 12.8429 12.8244 12.9869C12.8244 13.131 12.8244 13.7658 12.8938 14.4861C12.9632 15.2063 12.9899 15.9639 13.0059 16.1933C13.0219 16.4227 13.0432 16.8335 13.0646 17.1163C13.1019 17.6071 13.1286 18.0659 13.2299 20.0826C13.2511 20.7306 13.3207 21.3762 13.438 22.0139C13.4762 22.343 13.5441 22.668 13.6407 22.9849C13.6407 23.0276 13.6994 23.1503 13.7261 23.2356C13.7528 23.321 13.7954 23.417 13.8168 23.417C13.8381 23.417 13.8168 23.4171 13.8168 23.4597C13.8289 23.6051 13.8785 23.7448 13.9608 23.8652C14.0495 23.9968 14.1263 24.136 14.1903 24.2813C14.2223 24.3347 14.2543 24.3934 14.2916 24.4467C14.3284 24.4907 14.3623 24.5371 14.393 24.5854C14.7558 25.0792 15.2686 25.4422 15.8548 25.6204L16.0736 25.6632C16.1163 25.6632 16.1429 25.6205 16.1376 24.6441C16.1463 23.7323 16.1088 22.8206 16.0255 21.9126C16.0255 21.7098 15.9615 21.3791 15.9295 21.1336C15.9171 20.9641 15.8885 20.7962 15.8441 20.6321C15.8279 20.5836 15.8279 20.5312 15.8441 20.4827C15.8475 20.38 15.8349 20.2775 15.8068 20.1786C15.7801 20.0506 15.7321 19.8212 15.7054 19.6451C15.6912 19.3733 15.6354 19.1052 15.5401 18.8502C15.5151 18.7987 15.5023 18.742 15.5027 18.6848C15.4751 18.3871 15.4012 18.0955 15.2839 17.8205C15.2412 17.8578 15.2839 17.8205 15.2839 17.7778C15.2956 17.6819 15.2828 17.5846 15.2466 17.4951C15.2146 17.3777 15.1613 17.1803 15.1399 17.0736C15.1105 16.9469 15.073 16.8221 15.0278 16.7001C14.9925 16.6145 14.9674 16.5249 14.9531 16.4334C14.9385 16.3697 14.9189 16.3073 14.8945 16.2467C14.8571 16.1613 14.7451 15.7131 14.6651 15.361C14.6484 15.2665 14.6234 15.1737 14.5904 15.0836C14.4699 14.7649 14.3701 14.4388 14.2916 14.1073C14.2806 14.0456 14.2646 13.985 14.2436 13.9259C14.2287 13.8786 14.2162 13.8305 14.2063 13.7819C14.2063 13.7338 14.1476 13.5417 14.0942 13.3443C14.0408 13.1566 13.9981 12.966 13.9662 12.7735C13.9549 12.683 13.9352 12.5937 13.9075 12.5068C13.8023 12.1579 13.7256 11.801 13.6781 11.4397C13.6569 11.2865 13.6248 11.1349 13.5821 10.9863C13.5364 10.8116 13.5078 10.6329 13.4967 10.4527C13.4647 10.1913 13.4274 9.88721 13.4114 9.77517C13.3954 9.66314 13.3527 9.4657 13.3313 9.343C13.2956 9.05713 13.2014 8.78172 13.0545 8.53388C12.9077 8.28605 12.7113 8.07113 12.4777 7.90255C12.0769 7.73314 11.6338 7.69034 11.208 7.77986C10.978 7.84833 10.7749 7.98621 10.6264 8.17464C10.6264 8.22799 10.5784 8.27071 10.5464 8.27071C10.5405 8.26822 10.5341 8.26687 10.5277 8.26687C10.5213 8.26687 10.5149 8.26822 10.509 8.27071C10.5062 8.27653 10.5047 8.28287 10.5047 8.28934C10.5047 8.29581 10.5062 8.3022 10.509 8.30802C10.4964 8.36259 10.4686 8.41252 10.429 8.45209C10.3945 8.48242 10.3657 8.51849 10.3437 8.55875C10.3083 8.65878 10.2673 8.75677 10.2209 8.85221C10.1699 8.9566 10.1288 9.06555 10.0982 9.17764C10.1012 9.19172 10.1012 9.20623 10.0982 9.2203C10.0901 9.23518 10.0768 9.24659 10.0609 9.25234C10.0609 9.25234 10.0182 9.33233 10.0129 9.4177C10.0076 9.50306 10.0129 9.5564 9.97551 9.54573C9.93816 9.53506 9.94353 9.54579 9.94353 9.59914C9.91438 9.78154 9.86609 9.96036 9.79947 10.1327C9.48982 11.2587 9.28267 12.4104 9.18058 13.5738C9.06115 14.9245 9.06115 16.2831 9.18058 17.6338C9.26061 18.2366 9.2873 18.3914 9.46336 19.3357C9.51671 19.5758 9.55401 19.7732 9.55401 19.7838C9.55401 19.7945 9.55404 19.7838 9.58606 19.7838C9.61807 19.7838 9.62337 19.8265 9.62337 19.9119C9.64967 20.0811 9.69255 20.2473 9.75141 20.4081C9.82077 20.6055 9.88481 20.8242 9.90615 20.8935C9.92749 20.9629 9.9435 21.0269 9.97551 21.0269C10.0075 21.0269 10.0075 21.0269 9.97551 21.0802C9.96226 21.1382 9.96226 21.1984 9.97551 21.2563C10.0186 21.3494 10.0543 21.4457 10.0822 21.5444C10.0822 21.6351 10.1623 21.7792 10.1943 21.8752C10.2263 21.9713 10.2903 22.1153 10.3223 22.206C10.4183 22.4621 10.541 22.7768 10.5837 22.8569C10.6041 22.895 10.6167 22.9366 10.621 22.9796C10.6358 23.0605 10.6647 23.1382 10.7064 23.209C10.7434 23.2834 10.7703 23.3623 10.7865 23.4437C10.7865 23.4757 10.7864 23.5024 10.8291 23.5024C10.8718 23.5024 10.8718 23.5557 10.8718 23.6251C10.8718 23.6945 10.8718 23.7531 10.9092 23.7531C10.9465 23.7531 10.9518 23.7905 10.9518 23.8332C10.952 23.891 10.9667 23.9479 10.9945 23.9986L11.0746 24.1693C11.0982 24.2156 11.111 24.2667 11.1119 24.3187C11.1383 24.4671 11.1812 24.612 11.2399 24.7508C11.2651 24.8117 11.2779 24.877 11.2773 24.9429C11.2773 25.0123 11.2773 25.0709 11.3146 25.0816C11.4057 25.3528 11.4455 25.6387 11.432 25.9246C11.384 25.9833 10.8611 25.9779 8.9725 25.9779C6.59304 25.9779 6.55573 25.9779 6.53439 26.0579C6.51305 26.138 6.53439 26.1486 6.53439 26.1646C6.53439 26.1806 11.0372 26.1646 16.5003 26.1646H26.4343V26.074V25.9779H23.9962H21.5527V25.8766C21.5285 25.7947 21.5285 25.7076 21.5527 25.6258C21.5527 25.5511 21.606 25.3643 21.622 25.215C21.6451 25.0826 21.6791 24.9523 21.7234 24.8255C21.7693 24.7262 21.805 24.6225 21.8301 24.5161C21.8883 24.2579 21.976 24.0073 22.0915 23.7692C22.1267 23.7156 22.1418 23.6514 22.1342 23.5878C22.1342 23.5024 22.1342 23.4544 22.1342 23.4864C22.1342 23.5184 22.1929 23.4117 22.2516 23.257C22.2953 23.119 22.347 22.9836 22.4063 22.8515C22.4384 22.7822 22.481 22.6595 22.513 22.5848C22.5859 22.3174 22.6861 22.0581 22.8118 21.8112C22.8118 21.8112 22.8118 21.7525 22.8118 21.7045C22.8153 21.6597 22.828 21.6161 22.8491 21.5764C22.9053 21.457 22.9482 21.3318 22.9772 21.203C23.0137 21.0793 23.0582 20.9581 23.1106 20.8402C23.1343 20.7999 23.1454 20.7535 23.1426 20.7068C23.1408 20.6853 23.1437 20.6637 23.1511 20.6434C23.1584 20.6232 23.1701 20.6048 23.1853 20.5895C23.2014 20.5715 23.2135 20.5503 23.2209 20.5273C23.2282 20.5043 23.2306 20.4801 23.2279 20.4561C23.2482 20.2719 23.2968 20.0919 23.372 19.9226C23.4409 19.6859 23.4962 19.4454 23.5374 19.2023C23.5739 18.9773 23.6237 18.7546 23.6867 18.5354C23.7295 18.319 23.7562 18.0996 23.7668 17.8792C23.7747 17.655 23.8015 17.4319 23.8468 17.2123C23.9078 15.6845 23.8525 14.1542 23.6814 12.6348C23.6512 12.5736 23.6382 12.5054 23.6441 12.4374C23.5937 11.8992 23.51 11.3647 23.3933 10.8369C23.3514 10.717 23.3192 10.5939 23.2973 10.4688C23.2228 10.1478 23.132 9.8308 23.0252 9.5191C23.0252 9.47642 22.9505 9.33772 22.9078 9.20434C22.7748 8.77188 22.547 8.37452 22.2409 8.04127C22.1027 7.91935 21.9412 7.82676 21.7661 7.76917C21.5528 7.7077 21.3281 7.69679 21.1099 7.7372M9.62871 14.4434C9.62871 14.4968 9.62871 14.4434 9.62871 14.358C9.62871 14.2727 9.62871 14.214 9.62871 14.262C9.66504 14.3298 9.69369 14.4013 9.71409 14.4754L9.62871 14.4434ZM19.8294 16.0919C19.8294 16.1453 19.8294 16.092 19.8294 16.0013C19.8294 15.9106 19.8294 15.8572 19.8294 15.9106C19.875 15.9742 19.9059 16.047 19.9202 16.124L19.8294 16.0919ZM22.7531 16.428C22.7531 16.4814 22.7531 16.4281 22.7531 16.332C22.7531 16.236 22.7531 16.1933 22.7531 16.2413C22.7993 16.3065 22.8303 16.3813 22.8438 16.4601L22.7531 16.428ZM20.283 16.7588C20.283 16.8122 20.283 16.7589 20.283 16.6682C20.283 16.5775 20.283 16.5241 20.283 16.5721C20.3309 16.6316 20.3654 16.7008 20.3843 16.7748L20.283 16.7588ZM13.1286 17.4257C13.1286 17.4791 13.1286 17.4257 13.1286 17.335C13.1286 17.2444 13.1286 17.191 13.1286 17.239C13.1668 17.3083 13.1972 17.3817 13.2192 17.4577L13.1286 17.4257Z" fill="white"/>
</g>
</g>
<defs>
<clipPath id="clip0_177_11966">
<rect width="21" height="21" fill="white" transform="translate(5.66016 5.60001)"/>
</clipPath>
<clipPath id="clip1_177_11966">
<rect width="21" height="21" fill="white" transform="translate(5.66016 5.60001)"/>
</clipPath>
</defs>
</svg>
